<?xml version="1.0" ?>
<!-- Uploaded to: SVG Repo, www.svgrepo.com, Generator: SVG Repo Mixer Tools -->
<svg width="800px" height="800px" viewBox="0 0 24 24" version="1.1" xml:space="preserve" xmlns="http://www.w3.org/2000/svg" xmlns:xlink="http://www.w3.org/1999/xlink">
<style type="text/css">
	.st0{opacity:0.2;fill:none;stroke:#000000;stroke-width:5.000000e-02;stroke-miterlimit:10;}
</style>
<g id="grid_system"/>
<g id="_icons">
<path d="M18.7,15.3c-0.4-0.4-1-0.4-1.4,0L17,15.6l-0.3-0.3c-0.4-0.4-1-0.4-1.4,0s-0.4,1,0,1.4l0.3,0.3l-0.3,0.3   c-0.4,0.4-0.4,1,0,1.4c0.2,0.2,0.5,0.3,0.7,0.3s0.5-0.1,0.7-0.3l0.3-0.3l0.3,0.3c0.2,0.2,0.5,0.3,0.7,0.3s0.5-0.1,0.7-0.3   c0.4-0.4,0.4-1,0-1.4L18.4,17l0.3-0.3C19.1,16.3,19.1,15.7,18.7,15.3z"/>
<path d="M21,11c0-2.2-1.8-4-4-4h-3.4l-0.9-1.8C12,3.8,10.7,3,9.1,3H7C4.8,3,3,4.8,3,7v1v8c0,2.2,1.8,4,4,4h6c0.9,1.2,2.3,2,4,2   c2.8,0,5-2.2,5-5c0-1.1-0.4-2.1-1-3V11z M7,5h2.1c0.8,0,1.4,0.4,1.8,1.1L11.4,7H5C5,5.9,5.9,5,7,5z M7,18c-1.1,0-2-0.9-2-2V9h8h4   c1.1,0,2,0.9,2,2v1.4c-0.6-0.3-1.3-0.4-2-0.4c-2.8,0-5,2.2-5,5c0,0.3,0,0.7,0.1,1H7z M17,20c-1.7,0-3-1.3-3-3s1.3-3,3-3s3,1.3,3,3   S18.7,20,17,20z"/>
</g>
</svg>